HIERARCHY
ROOT Hips
{
	OFFSET 0.00000 0.00000 0.00000
	CHANNELS 6 Xposition Yposition Zposition Zrotation Yrotation Xrotation 
	JOINT LHipJoint
	{
		OFFSET 0 0 0
		CHANNELS 3 Zrotation Yrotation Xrotation
		JOINT LeftUpLeg
		{
			OFFSET 1.70593 -1.62653 0.87602
			CHANNELS 3 Zrotation Yrotation Xrotation
			JOINT LeftLeg
			{
				OFFSET 2.32330 -6.38322 0.00000
				CHANNELS 3 Zrotation Yrotation Xrotation
				JOINT LeftFoot
				{
					OFFSET 2.45016 -6.73177 0.00000
					CHANNELS 3 Zrotation Yrotation Xrotation
					JOINT LeftToeBase
					{
						OFFSET 0.13029 -0.35798 1.96980
						CHANNELS 3 Zrotation Yrotation Xrotation
						End Site
						{
							OFFSET 0.00000 -0.00000 1.01270
						}
					}
				}
			}
		}
	}
	JOINT RHipJoint
	{
		OFFSET 0 0 0
		CHANNELS 3 Zrotation Yrotation Xrotation
		JOINT RightUpLeg
		{
			OFFSET -1.80599 -1.62652 0.87602
			CHANNELS 3 Zrotation Yrotation Xrotation
			JOINT RightLeg
			{
				OFFSET -2.45375 -6.74162 0.00000
				CHANNELS 3 Zrotation Yrotation Xrotation
				JOINT RightFoot
				{
					OFFSET -2.45828 -6.75406 0.00000
					CHANNELS 3 Zrotation Yrotation Xrotation
					JOINT RightToeBase
					{
						OFFSET -0.13801 -0.37917 1.88456
						CHANNELS 3 Zrotation Yrotation Xrotation
						End Site
						{
							OFFSET -0.00000 -0.00000 0.97281
						}
					}
				}
			}
		}
	}
	JOINT LowerBack
	{
		OFFSET 0 0 0
		CHANNELS 3 Zrotation Yrotation Xrotation
		JOINT Spine
		{
			OFFSET 0.01003 2.00576 -0.14267
			CHANNELS 3 Zrotation Yrotation Xrotation
			JOINT Spine1
			{
				OFFSET 0.00908 2.01191 0.01660
				CHANNELS 3 Zrotation Yrotation Xrotation
				JOINT Neck
				{
					OFFSET 0 0 0
					CHANNELS 3 Zrotation Yrotation Xrotation
					JOINT Neck1
					{
						OFFSET -0.05849 1.60301 0.18934
						CHANNELS 3 Zrotation Yrotation Xrotation
						JOINT Head
						{
							OFFSET 0.01775 1.59435 -0.07960
							CHANNELS 3 Zrotation Yrotation Xrotation
							End Site
							{
								OFFSET 0.01210 1.70732 -0.05248
							}
						}
					}
				}
				JOINT LeftShoulder
				{
					OFFSET 0 0 0
					CHANNELS 3 Zrotation Yrotation Xrotation
					JOINT LeftArm
					{
						OFFSET 3.15315 1.26460 0.30667
						CHANNELS 3 Zrotation Yrotation Xrotation
						JOINT LeftForeArm
						{
							OFFSET 4.97694 -0.00000 -0.00000
							CHANNELS 3 Zrotation Yrotation Xrotation
							JOINT LeftHand
							{
								OFFSET 3.14391 -0.00000 -0.00000
								CHANNELS 3 Zrotation Yrotation Xrotation
								JOINT LeftFingerBase
								{
									OFFSET 0 0 0
									CHANNELS 3 Zrotation Yrotation Xrotation
									JOINT LeftHandIndex1
									{
										OFFSET 0.59358 -0.00000 -0.00000
										CHANNELS 3 Zrotation Yrotation Xrotation
										End Site
										{
											OFFSET 0.47856 -0.00000 -0.00000
										}
									}
								}
								JOINT LThumb
								{
									OFFSET 0 0 0
									CHANNELS 3 Zrotation Yrotation Xrotation
									End Site
									{
										OFFSET 0.48587 -0.00000 0.48587
									}
								}
							}
						}
					}
				}
				JOINT RightShoulder
				{
					OFFSET 0 0 0
					CHANNELS 3 Zrotation Yrotation Xrotation
					JOINT RightArm
					{
						OFFSET -3.25568 1.35581 0.18982
						CHANNELS 3 Zrotation Yrotation Xrotation
						JOINT RightForeArm
						{
							OFFSET -4.90473 -0.00000 0.00000
							CHANNELS 3 Zrotation Yrotation Xrotation
							JOINT RightHand
							{
								OFFSET -3.21621 0.00006 -0.00004
								CHANNELS 3 Zrotation Yrotation Xrotation
								JOINT RightFingerBase
								{
									OFFSET 0 0 0
									CHANNELS 3 Zrotation Yrotation Xrotation
									JOINT RightHandIndex1
									{
										OFFSET -0.62353 -0.00000 -0.00000
										CHANNELS 3 Zrotation Yrotation Xrotation
										End Site
										{
											OFFSET -0.50270 -0.00000 -0.00000
										}
									}
								}
								JOINT RThumb
								{
									OFFSET 0 0 0
									CHANNELS 3 Zrotation Yrotation Xrotation
									End Site
									{
										OFFSET -0.51038 -0.00000 0.51038
									}
								}
							}
						}
					}
				}
			}
		}
	}
}
MOTION
Frames: 10
Frame Time: .0083333
7.4956 14.4687 1.2138 -8.5654 -14.2130 14.3172 0.0000 0.0000 0.0000 1.9118 -8.7562 -62.7119 4.4114 12.6887 38.2140 0.1602 6.8881 -12.9838 0.1741 -2.6876 -7.4102 0.0000 0.0000 0.0000 20.9625 -1.7182 27.2272 -0.2402 -3.1544 8.7088 -1.3757 -2.1246 21.5828 -0.0197 -0.9054 2.4884 4.5633 11.6956 -2.2938 -3.6569 15.5496 -2.8833 -5.5239 7.7593 0.4532 -4.5090 -4.8597 -10.4009 6.8007 -6.6482 9.2921 2.3441 -3.0076 4.8728 0.0000 0.0000 0.0000 -68.9028 56.8384 -45.6538 7.5846 -12.8773 -0.8572 -0.0000 -0.0000 12.6863 14.2156 -3.7950 -0.9606 -7.1250 0.0000 -0.0000 -9.3804 26.0466 4.3639 0.0000 0.0000 0.0000 49.7315 53.3568 13.0737 -27.4726 38.6262 -9.7927 0.0000 -0.0000 -28.4646 -21.0586 -35.7493 12.6779 7.1250 -0.0000 -0.0000 16.8950 -66.9013 -9.0192
7.5081 14.4382 1.5169 -7.8793 -14.0838 14.9848 0.0000 0.0000 0.0000 0.7005 -8.2235 -64.6277 4.9196 13.2927 40.4743 0.0517 6.2990 -10.2305 0.0001 -0.0600 -0.1650 0.0000 0.0000 0.0000 20.1330 -1.5314 27.6749 -0.1880 -2.7928 7.7025 -1.6127 -5.0445 22.9085 -0.0029 -0.3451 0.9482 3.4110 11.5888 -2.4017 -4.1356 15.4118 -3.3759 -5.4985 7.6767 -0.1785 -4.7325 -4.9564 -10.0549 7.1376 -6.7778 8.9488 2.4834 -3.0712 4.7368 0.0000 0.0000 0.0000 -68.3294 56.7610 -44.4324 7.5640 -12.8437 -0.8526 -0.0000 -0.0000 11.5988 13.7056 -3.3188 -0.8089 -7.1250 0.0000 -0.0000 -9.7994 26.5362 4.4502 0.0000 0.0000 0.0000 49.9767 52.0318 14.1413 -28.4620 39.5381 -10.4165 0.0000 -0.0000 -29.2525 -21.0981 -36.2057 12.8387 7.1250 -0.0000 -0.0000 17.3432 -67.3426 -9.4385
7.5199 14.3842 1.7983 -7.5328 -14.0082 15.7198 0.0000 0.0000 0.0000 -0.4485 -7.4630 -66.7305 5.5677 13.9959 43.2212 -0.0239 6.0824 -7.9898 0.0181 0.8684 2.3866 0.0000 0.0000 0.0000 19.8579 -1.0251 27.3342 -0.2040 -2.9083 8.0237 -1.8211 -7.2700 24.2173 -0.0000 -0.0201 0.0552 2.6554 11.5503 -2.1528 -4.5887 15.3600 -3.9753 -5.7249 7.6321 -1.0111 -5.3428 -5.1724 -9.8008 7.7152 -7.0499 8.7986 2.7446 -3.1994 4.7082 -0.0000 0.0000 0.0000 -67.2809 56.4479 -42.8801 7.5965 -12.8967 -0.8598 -0.0000 -0.0000 11.0269 12.8839 -2.5264 -0.5777 -7.1250 0.0000 -0.0000 -10.4870 27.3427 4.5698 -0.0000 0.0000 0.0000 50.5588 50.7792 15.3050 -29.2962 40.2825 -10.9517 0.0000 -0.0000 -29.9205 -21.7632 -35.7898 13.1416 7.1250 -0.0000 -0.0000 16.0804 -67.1486 -8.6653
7.5203 14.3230 2.0714 -7.5392 -13.5485 16.2807 0.0000 0.0000 0.0000 -1.2071 -6.8808 -68.8749 6.3774 14.7843 46.4781 -0.0501 5.3947 -5.8578 0.1317 -2.3394 -6.4447 0.0000 0.0000 0.0000 20.2050 -0.6687 26.3934 -0.3061 -3.5570 9.8336 -1.9424 -8.9578 25.0018 -0.0024 -0.3189 0.8761 2.3823 11.4737 -1.8289 -4.9467 15.2547 -4.2358 -6.0626 7.5697 -1.4430 -5.6394 -5.4687 -10.2423 8.0239 -7.4257 8.7842 2.8465 -3.3654 4.8261 -0.0000 -0.0000 0.0000 -66.1256 55.1073 -42.3542 7.5874 -12.8818 -0.8578 -0.0000 -0.0000 11.7841 11.9593 -2.3613 -0.5000 -7.1250 0.0000 -0.0000 -11.2042 27.5104 4.8482 -0.0000 -0.0000 0.0000 50.5413 49.5688 15.6664 -30.2614 41.1164 -11.5811 0.0000 -0.0000 -30.3664 -22.8565 -35.2152 13.6620 7.1250 -0.0000 -0.0000 14.1456 -66.9233 -7.5317
7.5273 14.2663 2.3430 -7.5065 -13.0160 16.6792 0.0000 0.0000 0.0000 -1.6742 -6.6715 -70.7854 7.2664 15.5522 49.8750 -0.0113 3.6959 -4.7292 0.5153 -4.6012 -12.7745 0.0000 0.0000 0.0000 20.5804 -0.1981 25.5361 -0.4556 -4.3303 12.0078 -1.9426 -11.2243 25.1037 -0.0373 -1.2469 3.4283 2.2541 11.4082 -1.5057 -5.2677 15.1656 -4.2612 -6.3990 7.5232 -1.6023 -5.7469 -5.6814 -10.7739 8.3289 -7.6977 8.5776 2.9237 -3.4742 4.8875 0.0000 -0.0000 0.0000 -65.4589 53.5050 -41.5678 7.6860 -13.0426 -0.8799 -0.0000 -0.0000 12.0742 11.1580 -2.4308 -0.4793 -7.1250 0.0000 -0.0000 -11.8047 27.4409 5.1381 0.0000 -0.0000 0.0000 49.9485 48.0762 15.6865 -31.5844 42.2133 -12.4607 0.0000 -0.0000 -30.7957 -21.4791 -35.1733 12.7714 7.1250 -0.0000 -0.0000 15.7892 -66.4786 -8.2637
7.5360 14.2304 2.5818 -7.5896 -12.7033 17.1588 0.0000 0.0000 0.0000 -1.8144 -6.4937 -72.4342 8.0784 16.1766 52.8446 0.0139 2.3556 -4.2101 0.4132 -4.1261 -11.4318 0.0000 0.0000 0.0000 21.1571 0.7248 25.0350 -0.5776 -4.8669 13.5294 -1.7051 -15.6462 24.3000 -0.2876 -3.4490 9.5314 2.1630 11.3709 -0.8151 -5.4881 15.1125 -4.4002 -6.7524 7.4821 -2.0960 -6.0323 -5.7805 -10.6786 8.6385 -7.7782 7.8378 3.0659 -3.5194 4.6745 0.0000 0.0000 0.0000 -65.1154 52.1301 -39.3142 7.8748 -13.3498 -0.9230 -0.0000 -0.0000 10.6313 10.8464 -2.7300 -0.5228 -7.1250 0.0000 -0.0000 -12.0097 27.1428 5.3174 0.0000 0.0000 0.0000 49.6535 46.6608 16.1277 -32.9265 43.2735 -13.3717 0.0000 -0.0000 -31.2055 -20.1194 -34.9268 11.8453 7.1250 -0.0000 -0.0000 17.1679 -65.8520 -8.7563
7.5488 14.2468 2.8630 -7.1119 -12.5826 17.5701 0.0000 0.0000 0.0000 -2.8783 -6.3229 -73.3961 8.7220 16.6255 55.1236 0.0345 1.3686 -4.2944 0.2153 -2.9870 -8.2425 0.0000 0.0000 0.0000 20.9284 1.2821 23.9629 -0.7055 -5.3686 14.9631 -2.1269 -14.8725 26.6863 -0.0034 0.3754 -1.0314 1.6463 11.3350 -0.7530 -5.8462 15.0508 -4.3057 -6.8612 7.4638 -2.0717 -6.0151 -5.8523 -10.9469 8.4013 -7.7988 7.2378 2.9861 -3.5455 4.5253 -0.0000 -0.0000 0.0000 -64.6771 50.3498 -37.2859 8.0368 -13.6126 -0.9608 -0.0000 -0.0000 9.1061 10.5876 -3.8110 -0.7118 -7.1250 0.0000 -0.0000 -12.0977 26.0679 5.6705 -0.0000 -0.0000 0.0000 49.7609 45.8604 16.5917 -33.8123 43.9452 -13.9826 0.0000 -0.0000 -31.1707 -21.0630 -35.1240 12.4938 7.1250 -0.0000 -0.0000 16.2413 -66.3106 -8.4432
7.5597 14.2477 3.1302 -7.0672 -12.3236 18.1470 0.0000 0.0000 0.0000 -3.3398 -6.2482 -74.3203 9.2611 16.9728 56.9888 0.0517 0.4404 -4.4771 0.1131 -2.1683 -5.9709 0.0000 0.0000 0.0000 21.2853 2.1887 23.5938 -0.8256 -5.7972 16.1970 -1.9643 -16.9384 26.1543 -0.0330 -1.1722 3.2226 1.5146 11.2947 -0.7891 -6.0981 14.9932 -4.2452 -7.0338 7.4423 -1.9612 -5.9568 -5.9087 -11.5400 8.2952 -7.8327 7.0557 2.9281 -3.5546 4.5627 0.0000 -0.0000 0.0000 -64.2433 48.1444 -36.5726 8.0982 -13.7118 -0.9753 -0.0000 -0.0000 8.8117 9.9144 -4.2368 -0.7398 -7.1250 0.0000 -0.0000 -12.5580 25.6504 6.0220 0.0000 -0.0000 0.0000 49.9869 45.3466 17.0168 -34.2665 44.2812 -14.2988 0.0000 -0.0000 -30.8818 -22.2438 -35.8147 13.4591 7.1250 -0.0000 -0.0000 15.5162 -67.3157 -8.4141
7.5695 14.2652 3.3838 -7.3372 -11.7314 18.6403 0.0000 0.0000 0.0000 -3.4899 -6.3294 -74.7750 9.6790 17.2253 58.4099 0.0651 -0.8377 -4.5977 0.0416 -1.3156 -3.6177 0.0000 0.0000 0.0000 22.1169 2.8070 22.7871 -0.9755 -6.2877 17.6214 -2.2216 -15.7969 27.3937 -0.0007 0.1737 -0.4772 1.6704 11.1216 -0.4819 -6.1647 14.7591 -4.3722 -7.2752 7.3117 -2.2372 -5.9852 -5.8656 -11.4824 8.4087 -7.7671 6.7852 2.9772 -3.5224 4.4717 -0.0000 -0.0000 0.0000 -63.9468 46.0445 -36.0933 7.9797 -13.5200 -0.9474 -0.0000 -0.0000 9.0131 9.7285 -3.1566 -0.5409 -7.1250 0.0000 -0.0000 -12.8060 26.7208 5.8170 -0.0000 -0.0000 0.0000 50.4579 44.4904 18.1480 -34.5983 44.5232 -14.5310 0.0000 -0.0000 -30.8941 -23.2847 -35.8558 14.1482 7.1250 -0.0000 -0.0000 14.2631 -67.6682 -7.8370
7.6001 14.2724 3.6730 -6.5145 -11.6124 18.4078 0.0000 0.0000 0.0000 -5.1709 -6.3766 -74.3340 10.1579 17.4977 60.0147 0.0987 -2.3333 -5.5836 0.0177 -0.8589 -2.3606 0.0000 0.0000 0.0000 21.1758 2.5163 22.8563 -1.0499 -6.5157 18.2881 -2.4964 -14.4212 28.7277 -0.0338 1.1870 -3.2635 1.0221 11.0048 -0.1983 -6.4296 14.5807 -4.2383 -7.2752 7.2322 -2.3651 -5.8795 -5.8685 -11.4047 8.1145 -7.7526 6.6684 2.8737 -3.5327 4.4050 0.0000 0.0000 0.0000 -64.2919 45.2287 -31.8265 8.3399 -14.1023 -1.0334 -0.0000 -0.0000 5.5347 10.0275 -2.3846 -0.4215 -7.1250 0.0000 -0.0000 -12.6646 27.4853 5.5157 0.0000 0.0000 0.0000 50.9538 43.2605 19.6613 -34.9502 44.7765 -14.7783 0.0000 -0.0000 -31.0182 -23.9816 -35.6959 14.5506 7.1250 -0.0000 -0.0000 13.2183 -67.7249 -7.2716
